<mxfile host="app.diagrams.net" modified="2023-11-16T17:09:30.690Z" agent="Mozilla/5.0 (Windows NT 10.0; Win64; x64) AppleWebKit/537.36 (KHTML, like Gecko) Chrome/119.0.0.0 Safari/537.36" etag="Ikv9HJdi382MWvqnpQMo" version="22.1.2" type="github">
  <diagram name="Page-1" id="c7558073-3199-34d8-9f00-42111426c3f3">
    <mxGraphModel dx="1079" dy="576" grid="1" gridSize="10" guides="1" tooltips="1" connect="1" arrows="1" fold="1" page="1" pageScale="1" pageWidth="826" pageHeight="1169" background="none" math="0" shadow="0">
      <root>
        <mxCell id="0" />
        <mxCell id="1" parent="0" />
        <mxCell id="r9834hisQQ9bvXMmOAnk-118" value="" style="edgeStyle=orthogonalEdgeStyle;rounded=0;orthogonalLoop=1;jettySize=auto;html=1;" edge="1" parent="1" source="r9834hisQQ9bvXMmOAnk-105">
          <mxGeometry relative="1" as="geometry">
            <mxPoint x="400" y="240" as="targetPoint" />
          </mxGeometry>
        </mxCell>
        <mxCell id="r9834hisQQ9bvXMmOAnk-105" value="Пользователь" style="shape=ext;double=1;rounded=1;whiteSpace=wrap;html=1;labelBackgroundColor=none;glass=0;shadow=0;" vertex="1" parent="1">
          <mxGeometry x="350" y="180" width="100" height="40" as="geometry" />
        </mxCell>
        <mxCell id="r9834hisQQ9bvXMmOAnk-145" value="Сервис аутентификации&lt;br&gt;и&lt;br&gt;&amp;nbsp;авторизации" style="shape=ext;double=1;rounded=1;whiteSpace=wrap;html=1;verticalAlign=middle;movable=1;resizable=1;rotatable=1;deletable=1;editable=1;locked=0;connectable=1;" vertex="1" parent="1">
          <mxGeometry x="520" y="240.78" width="120" height="66.87" as="geometry" />
        </mxCell>
        <mxCell id="r9834hisQQ9bvXMmOAnk-151" value="- Пользователи&lt;br&gt;- Роли" style="shape=cylinder3;whiteSpace=wrap;html=1;boundedLbl=1;backgroundOutline=1;size=5.199981689453125;movable=1;resizable=1;rotatable=1;deletable=1;editable=1;locked=0;connectable=1;fillColor=#d5e8d4;strokeColor=#82b366;" vertex="1" parent="1">
          <mxGeometry x="700" y="249.21000000000004" width="100" height="50" as="geometry" />
        </mxCell>
        <mxCell id="r9834hisQQ9bvXMmOAnk-157" value="" style="group;verticalAlign=middle;" vertex="1" connectable="0" parent="1">
          <mxGeometry x="332.5" y="240" width="135" height="70" as="geometry" />
        </mxCell>
        <mxCell id="r9834hisQQ9bvXMmOAnk-135" value="API GATEWAY" style="shape=ext;double=1;rounded=0;whiteSpace=wrap;html=1;verticalAlign=middle;" vertex="1" parent="r9834hisQQ9bvXMmOAnk-157">
          <mxGeometry width="135" height="70" as="geometry" />
        </mxCell>
        <mxCell id="r9834hisQQ9bvXMmOAnk-225" style="edgeStyle=orthogonalEdgeStyle;rounded=0;orthogonalLoop=1;jettySize=auto;html=1;exitX=0;exitY=0.75;exitDx=0;exitDy=0;entryX=0;entryY=0.5;entryDx=0;entryDy=0;" edge="1" parent="1" source="r9834hisQQ9bvXMmOAnk-162" target="r9834hisQQ9bvXMmOAnk-189">
          <mxGeometry relative="1" as="geometry">
            <Array as="points">
              <mxPoint x="410" y="397" />
              <mxPoint x="410" y="623" />
            </Array>
          </mxGeometry>
        </mxCell>
        <mxCell id="r9834hisQQ9bvXMmOAnk-162" value="Сервис ЛК ученика&lt;br&gt;" style="shape=ext;double=1;rounded=1;whiteSpace=wrap;html=1;verticalAlign=middle;movable=1;resizable=1;rotatable=1;deletable=1;editable=1;locked=0;connectable=1;" vertex="1" parent="1">
          <mxGeometry x="530" y="361.57000000000005" width="110" height="46.87" as="geometry" />
        </mxCell>
        <mxCell id="r9834hisQQ9bvXMmOAnk-202" style="edgeStyle=orthogonalEdgeStyle;rounded=0;orthogonalLoop=1;jettySize=auto;html=1;exitX=0.5;exitY=0;exitDx=0;exitDy=0;entryX=0.5;entryY=1;entryDx=0;entryDy=0;" edge="1" parent="1" source="r9834hisQQ9bvXMmOAnk-163" target="r9834hisQQ9bvXMmOAnk-167">
          <mxGeometry relative="1" as="geometry" />
        </mxCell>
        <mxCell id="r9834hisQQ9bvXMmOAnk-163" value="Сервис ЛК преподавателя" style="shape=ext;double=1;rounded=1;whiteSpace=wrap;html=1;verticalAlign=middle;movable=1;resizable=1;rotatable=1;deletable=1;editable=1;locked=0;connectable=1;" vertex="1" parent="1">
          <mxGeometry x="150" y="362.34999999999997" width="110" height="46.87" as="geometry" />
        </mxCell>
        <mxCell id="r9834hisQQ9bvXMmOAnk-167" value="Сервис новостного блока" style="shape=ext;double=1;rounded=1;whiteSpace=wrap;html=1;verticalAlign=middle;movable=1;resizable=1;rotatable=1;deletable=1;editable=1;locked=0;connectable=1;" vertex="1" parent="1">
          <mxGeometry x="150" y="252.34999999999994" width="110" height="46.87" as="geometry" />
        </mxCell>
        <mxCell id="r9834hisQQ9bvXMmOAnk-171" value="- Данные&amp;nbsp;&lt;br&gt;- Сообщения" style="shape=cylinder3;whiteSpace=wrap;html=1;boundedLbl=1;backgroundOutline=1;size=5.199981689453125;movable=1;resizable=1;rotatable=1;deletable=1;editable=1;locked=0;connectable=1;fillColor=#d5e8d4;strokeColor=#82b366;" vertex="1" parent="1">
          <mxGeometry x="710" y="359.22" width="100" height="50" as="geometry" />
        </mxCell>
        <mxCell id="r9834hisQQ9bvXMmOAnk-172" value="- Данные&lt;br&gt;- Сообщения" style="shape=cylinder3;whiteSpace=wrap;html=1;boundedLbl=1;backgroundOutline=1;size=5.199981689453125;movable=1;resizable=1;rotatable=1;deletable=1;editable=1;locked=0;connectable=1;fillColor=#d5e8d4;strokeColor=#82b366;" vertex="1" parent="1">
          <mxGeometry y="360" width="100" height="50" as="geometry" />
        </mxCell>
        <mxCell id="r9834hisQQ9bvXMmOAnk-173" value="- Новости&lt;br&gt;- Календарь" style="shape=cylinder3;whiteSpace=wrap;html=1;boundedLbl=1;backgroundOutline=1;size=5.199981689453125;movable=1;resizable=1;rotatable=1;deletable=1;editable=1;locked=0;connectable=1;fillColor=#d5e8d4;strokeColor=#82b366;" vertex="1" parent="1">
          <mxGeometry y="249.99999999999997" width="100" height="50" as="geometry" />
        </mxCell>
        <mxCell id="r9834hisQQ9bvXMmOAnk-175" style="edgeStyle=orthogonalEdgeStyle;rounded=0;orthogonalLoop=1;jettySize=auto;html=1;exitX=0;exitY=0.5;exitDx=0;exitDy=0;entryX=1;entryY=0.5;entryDx=0;entryDy=0;entryPerimeter=0;" edge="1" parent="1" source="r9834hisQQ9bvXMmOAnk-163" target="r9834hisQQ9bvXMmOAnk-172">
          <mxGeometry relative="1" as="geometry" />
        </mxCell>
        <mxCell id="r9834hisQQ9bvXMmOAnk-176" style="edgeStyle=orthogonalEdgeStyle;rounded=0;orthogonalLoop=1;jettySize=auto;html=1;exitX=0;exitY=0.5;exitDx=0;exitDy=0;entryX=1;entryY=0.5;entryDx=0;entryDy=0;entryPerimeter=0;" edge="1" parent="1" source="r9834hisQQ9bvXMmOAnk-167" target="r9834hisQQ9bvXMmOAnk-173">
          <mxGeometry relative="1" as="geometry" />
        </mxCell>
        <mxCell id="r9834hisQQ9bvXMmOAnk-177" value="- Оценки" style="shape=cylinder3;whiteSpace=wrap;html=1;boundedLbl=1;backgroundOutline=1;size=5.199981689453125;movable=1;resizable=1;rotatable=1;deletable=1;editable=1;locked=0;connectable=1;fillColor=#d5e8d4;strokeColor=#82b366;" vertex="1" parent="1">
          <mxGeometry x="611.25" y="598.4300000000001" width="100" height="50" as="geometry" />
        </mxCell>
        <mxCell id="r9834hisQQ9bvXMmOAnk-178" value="- Учебные планы" style="shape=cylinder3;whiteSpace=wrap;html=1;boundedLbl=1;backgroundOutline=1;size=5.199981689453125;movable=1;resizable=1;rotatable=1;deletable=1;editable=1;locked=0;connectable=1;fillColor=#d5e8d4;strokeColor=#82b366;" vertex="1" parent="1">
          <mxGeometry x="30" y="646.57" width="100" height="50" as="geometry" />
        </mxCell>
        <mxCell id="r9834hisQQ9bvXMmOAnk-179" value="- Ученики&lt;br&gt;" style="shape=cylinder3;whiteSpace=wrap;html=1;boundedLbl=1;backgroundOutline=1;size=5.199981689453125;movable=1;resizable=1;rotatable=1;deletable=1;editable=1;locked=0;connectable=1;fillColor=#d5e8d4;strokeColor=#82b366;" vertex="1" parent="1">
          <mxGeometry x="611.25" y="520" width="100" height="50" as="geometry" />
        </mxCell>
        <mxCell id="r9834hisQQ9bvXMmOAnk-180" value="- Учебные группы" style="shape=cylinder3;whiteSpace=wrap;html=1;boundedLbl=1;backgroundOutline=1;size=5.199981689453125;movable=1;resizable=1;rotatable=1;deletable=1;editable=1;locked=0;connectable=1;fillColor=#d5e8d4;strokeColor=#82b366;" vertex="1" parent="1">
          <mxGeometry x="30" y="550.3000000000001" width="100" height="50" as="geometry" />
        </mxCell>
        <mxCell id="r9834hisQQ9bvXMmOAnk-181" value="- Учебные предметы" style="shape=cylinder3;whiteSpace=wrap;html=1;boundedLbl=1;backgroundOutline=1;size=5.199981689453125;movable=1;resizable=1;rotatable=1;deletable=1;editable=1;locked=0;connectable=1;fillColor=#d5e8d4;strokeColor=#82b366;" vertex="1" parent="1">
          <mxGeometry x="611.25" y="680.01" width="100" height="50" as="geometry" />
        </mxCell>
        <mxCell id="r9834hisQQ9bvXMmOAnk-182" value="Сервис учебных планов" style="shape=ext;double=1;rounded=1;whiteSpace=wrap;html=1;verticalAlign=middle;movable=1;resizable=1;rotatable=1;deletable=1;editable=1;locked=0;connectable=1;" vertex="1" parent="1">
          <mxGeometry x="197.5" y="648.13" width="110" height="46.87" as="geometry" />
        </mxCell>
        <mxCell id="r9834hisQQ9bvXMmOAnk-183" value="Сервис учебных групп" style="shape=ext;double=1;rounded=1;whiteSpace=wrap;html=1;verticalAlign=middle;movable=1;resizable=1;rotatable=1;deletable=1;editable=1;locked=0;connectable=1;" vertex="1" parent="1">
          <mxGeometry x="197.5" y="551.87" width="110" height="46.87" as="geometry" />
        </mxCell>
        <mxCell id="r9834hisQQ9bvXMmOAnk-185" value="" style="endArrow=classic;startArrow=classic;html=1;rounded=0;entryX=0.5;entryY=1;entryDx=0;entryDy=0;exitX=0.5;exitY=0;exitDx=0;exitDy=0;" edge="1" parent="1" source="r9834hisQQ9bvXMmOAnk-182" target="r9834hisQQ9bvXMmOAnk-183">
          <mxGeometry width="50" height="50" relative="1" as="geometry">
            <mxPoint x="225" y="655" as="sourcePoint" />
            <mxPoint x="275" y="605" as="targetPoint" />
          </mxGeometry>
        </mxCell>
        <mxCell id="r9834hisQQ9bvXMmOAnk-186" style="edgeStyle=orthogonalEdgeStyle;rounded=0;orthogonalLoop=1;jettySize=auto;html=1;exitX=0;exitY=0.5;exitDx=0;exitDy=0;entryX=1;entryY=0.5;entryDx=0;entryDy=0;entryPerimeter=0;" edge="1" parent="1" source="r9834hisQQ9bvXMmOAnk-183" target="r9834hisQQ9bvXMmOAnk-180">
          <mxGeometry relative="1" as="geometry" />
        </mxCell>
        <mxCell id="r9834hisQQ9bvXMmOAnk-187" style="edgeStyle=orthogonalEdgeStyle;rounded=0;orthogonalLoop=1;jettySize=auto;html=1;exitX=0;exitY=0.5;exitDx=0;exitDy=0;entryX=1;entryY=0.5;entryDx=0;entryDy=0;entryPerimeter=0;" edge="1" parent="1" source="r9834hisQQ9bvXMmOAnk-182" target="r9834hisQQ9bvXMmOAnk-178">
          <mxGeometry relative="1" as="geometry" />
        </mxCell>
        <mxCell id="r9834hisQQ9bvXMmOAnk-188" value="Сервис учеников" style="shape=ext;double=1;rounded=1;whiteSpace=wrap;html=1;verticalAlign=middle;movable=1;resizable=1;rotatable=1;deletable=1;editable=1;locked=0;connectable=1;" vertex="1" parent="1">
          <mxGeometry x="438.75" y="521.5699999999999" width="110" height="46.87" as="geometry" />
        </mxCell>
        <mxCell id="r9834hisQQ9bvXMmOAnk-189" value="Сервис оценок" style="shape=ext;double=1;rounded=1;whiteSpace=wrap;html=1;verticalAlign=middle;movable=1;resizable=1;rotatable=1;deletable=1;editable=1;locked=0;connectable=1;" vertex="1" parent="1">
          <mxGeometry x="438.75" y="600" width="110" height="46.87" as="geometry" />
        </mxCell>
        <mxCell id="r9834hisQQ9bvXMmOAnk-190" value="Сервис учебных предметов" style="shape=ext;double=1;rounded=1;whiteSpace=wrap;html=1;verticalAlign=middle;movable=1;resizable=1;rotatable=1;deletable=1;editable=1;locked=0;connectable=1;" vertex="1" parent="1">
          <mxGeometry x="438.75" y="681.5699999999999" width="110" height="46.87" as="geometry" />
        </mxCell>
        <mxCell id="r9834hisQQ9bvXMmOAnk-191" style="edgeStyle=orthogonalEdgeStyle;rounded=0;orthogonalLoop=1;jettySize=auto;html=1;exitX=1;exitY=0.5;exitDx=0;exitDy=0;entryX=0;entryY=0.5;entryDx=0;entryDy=0;entryPerimeter=0;" edge="1" parent="1" source="r9834hisQQ9bvXMmOAnk-188" target="r9834hisQQ9bvXMmOAnk-179">
          <mxGeometry relative="1" as="geometry" />
        </mxCell>
        <mxCell id="r9834hisQQ9bvXMmOAnk-192" style="edgeStyle=orthogonalEdgeStyle;rounded=0;orthogonalLoop=1;jettySize=auto;html=1;exitX=1;exitY=0.5;exitDx=0;exitDy=0;entryX=0;entryY=0.5;entryDx=0;entryDy=0;entryPerimeter=0;" edge="1" parent="1" source="r9834hisQQ9bvXMmOAnk-189" target="r9834hisQQ9bvXMmOAnk-177">
          <mxGeometry relative="1" as="geometry" />
        </mxCell>
        <mxCell id="r9834hisQQ9bvXMmOAnk-193" style="edgeStyle=orthogonalEdgeStyle;rounded=0;orthogonalLoop=1;jettySize=auto;html=1;exitX=1;exitY=0.5;exitDx=0;exitDy=0;entryX=0;entryY=0.5;entryDx=0;entryDy=0;entryPerimeter=0;" edge="1" parent="1" source="r9834hisQQ9bvXMmOAnk-190" target="r9834hisQQ9bvXMmOAnk-181">
          <mxGeometry relative="1" as="geometry" />
        </mxCell>
        <mxCell id="r9834hisQQ9bvXMmOAnk-200" style="edgeStyle=orthogonalEdgeStyle;rounded=0;orthogonalLoop=1;jettySize=auto;html=1;exitX=1;exitY=0.5;exitDx=0;exitDy=0;entryX=0;entryY=0.5;entryDx=0;entryDy=0;entryPerimeter=0;" edge="1" parent="1" source="r9834hisQQ9bvXMmOAnk-145" target="r9834hisQQ9bvXMmOAnk-151">
          <mxGeometry relative="1" as="geometry" />
        </mxCell>
        <mxCell id="r9834hisQQ9bvXMmOAnk-203" style="edgeStyle=orthogonalEdgeStyle;rounded=0;orthogonalLoop=1;jettySize=auto;html=1;exitX=1;exitY=0.5;exitDx=0;exitDy=0;entryX=0;entryY=0.5;entryDx=0;entryDy=0;entryPerimeter=0;" edge="1" parent="1" source="r9834hisQQ9bvXMmOAnk-162" target="r9834hisQQ9bvXMmOAnk-171">
          <mxGeometry relative="1" as="geometry" />
        </mxCell>
        <mxCell id="r9834hisQQ9bvXMmOAnk-207" value="" style="shape=flexArrow;endArrow=classic;html=1;rounded=0;endWidth=13;endSize=5.18;width=4;entryX=1;entryY=0.5;entryDx=0;entryDy=0;exitX=0;exitY=0.5;exitDx=0;exitDy=0;" edge="1" parent="1" source="r9834hisQQ9bvXMmOAnk-135" target="r9834hisQQ9bvXMmOAnk-167">
          <mxGeometry width="50" height="50" relative="1" as="geometry">
            <mxPoint x="370" y="340" as="sourcePoint" />
            <mxPoint x="290" y="340" as="targetPoint" />
          </mxGeometry>
        </mxCell>
        <mxCell id="r9834hisQQ9bvXMmOAnk-208" value="" style="shape=flexArrow;endArrow=classic;html=1;rounded=0;endWidth=13;endSize=5.18;width=4;entryX=1;entryY=0.5;entryDx=0;entryDy=0;exitX=0.5;exitY=1;exitDx=0;exitDy=0;" edge="1" parent="1" source="r9834hisQQ9bvXMmOAnk-135" target="r9834hisQQ9bvXMmOAnk-163">
          <mxGeometry width="50" height="50" relative="1" as="geometry">
            <mxPoint x="436.5" y="385.28" as="sourcePoint" />
            <mxPoint x="363.5" y="386.28" as="targetPoint" />
          </mxGeometry>
        </mxCell>
        <mxCell id="r9834hisQQ9bvXMmOAnk-209" value="" style="shape=flexArrow;endArrow=classic;html=1;rounded=0;endWidth=13;endSize=5.18;width=4;entryX=0;entryY=0.5;entryDx=0;entryDy=0;exitX=0.5;exitY=1;exitDx=0;exitDy=0;" edge="1" parent="1" source="r9834hisQQ9bvXMmOAnk-135" target="r9834hisQQ9bvXMmOAnk-162">
          <mxGeometry width="50" height="50" relative="1" as="geometry">
            <mxPoint x="353" y="295" as="sourcePoint" />
            <mxPoint x="280" y="296" as="targetPoint" />
          </mxGeometry>
        </mxCell>
        <mxCell id="r9834hisQQ9bvXMmOAnk-211" value="" style="shape=flexArrow;endArrow=classic;startArrow=classic;html=1;rounded=0;width=4;endSize=6.31;endWidth=12;startWidth=12;startSize=6.31;entryX=0;entryY=0.5;entryDx=0;entryDy=0;exitX=1;exitY=0.5;exitDx=0;exitDy=0;" edge="1" parent="1" source="r9834hisQQ9bvXMmOAnk-135" target="r9834hisQQ9bvXMmOAnk-145">
          <mxGeometry width="100" height="100" relative="1" as="geometry">
            <mxPoint x="280" y="440" as="sourcePoint" />
            <mxPoint x="380" y="340" as="targetPoint" />
          </mxGeometry>
        </mxCell>
        <mxCell id="r9834hisQQ9bvXMmOAnk-212" value="" style="endArrow=classic;startArrow=classic;html=1;rounded=0;exitX=0.5;exitY=1;exitDx=0;exitDy=0;entryX=0.5;entryY=1;entryDx=0;entryDy=0;" edge="1" parent="1" source="r9834hisQQ9bvXMmOAnk-163" target="r9834hisQQ9bvXMmOAnk-162">
          <mxGeometry width="50" height="50" relative="1" as="geometry">
            <mxPoint x="300" y="420" as="sourcePoint" />
            <mxPoint x="530" y="390" as="targetPoint" />
            <Array as="points">
              <mxPoint x="205" y="440" />
              <mxPoint x="585" y="440" />
            </Array>
          </mxGeometry>
        </mxCell>
        <mxCell id="r9834hisQQ9bvXMmOAnk-215" value="" style="endArrow=classic;startArrow=classic;html=1;rounded=0;exitX=0.5;exitY=1;exitDx=0;exitDy=0;entryX=0.5;entryY=0;entryDx=0;entryDy=0;" edge="1" parent="1" source="r9834hisQQ9bvXMmOAnk-188" target="r9834hisQQ9bvXMmOAnk-189">
          <mxGeometry width="50" height="50" relative="1" as="geometry">
            <mxPoint x="490" y="620" as="sourcePoint" />
            <mxPoint x="540" y="570" as="targetPoint" />
          </mxGeometry>
        </mxCell>
        <mxCell id="r9834hisQQ9bvXMmOAnk-216" value="" style="endArrow=classic;startArrow=classic;html=1;rounded=0;exitX=0.5;exitY=1;exitDx=0;exitDy=0;entryX=0.5;entryY=0;entryDx=0;entryDy=0;" edge="1" parent="1" source="r9834hisQQ9bvXMmOAnk-189" target="r9834hisQQ9bvXMmOAnk-190">
          <mxGeometry width="50" height="50" relative="1" as="geometry">
            <mxPoint x="504" y="578" as="sourcePoint" />
            <mxPoint x="504" y="610" as="targetPoint" />
          </mxGeometry>
        </mxCell>
        <mxCell id="r9834hisQQ9bvXMmOAnk-217" value="" style="endArrow=classic;startArrow=classic;html=1;rounded=0;exitX=0.5;exitY=1;exitDx=0;exitDy=0;entryX=0;entryY=0.5;entryDx=0;entryDy=0;" edge="1" parent="1" source="r9834hisQQ9bvXMmOAnk-182" target="r9834hisQQ9bvXMmOAnk-190">
          <mxGeometry width="50" height="50" relative="1" as="geometry">
            <mxPoint x="514" y="588" as="sourcePoint" />
            <mxPoint x="514" y="620" as="targetPoint" />
            <Array as="points">
              <mxPoint x="253" y="720" />
              <mxPoint x="350" y="720" />
              <mxPoint x="360" y="720" />
            </Array>
          </mxGeometry>
        </mxCell>
        <mxCell id="r9834hisQQ9bvXMmOAnk-219" value="" style="endArrow=classic;startArrow=classic;html=1;rounded=0;entryX=0;entryY=0.5;entryDx=0;entryDy=0;exitX=1;exitY=0.5;exitDx=0;exitDy=0;" edge="1" parent="1" source="r9834hisQQ9bvXMmOAnk-183" target="r9834hisQQ9bvXMmOAnk-188">
          <mxGeometry width="50" height="50" relative="1" as="geometry">
            <mxPoint x="330" y="610" as="sourcePoint" />
            <mxPoint x="380" y="560" as="targetPoint" />
            <Array as="points">
              <mxPoint x="420" y="575" />
              <mxPoint x="420" y="545" />
            </Array>
          </mxGeometry>
        </mxCell>
        <mxCell id="r9834hisQQ9bvXMmOAnk-223" value="" style="endArrow=classic;startArrow=classic;html=1;rounded=0;exitX=1;exitY=0.5;exitDx=0;exitDy=0;entryX=1;entryY=0.75;entryDx=0;entryDy=0;" edge="1" parent="1" source="r9834hisQQ9bvXMmOAnk-182" target="r9834hisQQ9bvXMmOAnk-163">
          <mxGeometry width="50" height="50" relative="1" as="geometry">
            <mxPoint x="300" y="520" as="sourcePoint" />
            <mxPoint x="350" y="470" as="targetPoint" />
            <Array as="points">
              <mxPoint x="360" y="670" />
              <mxPoint x="360" y="400" />
            </Array>
          </mxGeometry>
        </mxCell>
        <mxCell id="r9834hisQQ9bvXMmOAnk-226" value="" style="endArrow=classic;startArrow=classic;html=1;rounded=0;exitX=0;exitY=0.25;exitDx=0;exitDy=0;entryX=1;entryY=0.75;entryDx=0;entryDy=0;" edge="1" parent="1" source="r9834hisQQ9bvXMmOAnk-188" target="r9834hisQQ9bvXMmOAnk-163">
          <mxGeometry width="50" height="50" relative="1" as="geometry">
            <mxPoint x="318" y="682" as="sourcePoint" />
            <mxPoint x="270" y="408" as="targetPoint" />
            <Array as="points">
              <mxPoint x="370" y="533" />
              <mxPoint x="370" y="400" />
            </Array>
          </mxGeometry>
        </mxCell>
        <mxCell id="r9834hisQQ9bvXMmOAnk-227" value="" style="endArrow=classic;startArrow=classic;html=1;rounded=0;exitX=0;exitY=0.25;exitDx=0;exitDy=0;entryX=1;entryY=0.75;entryDx=0;entryDy=0;" edge="1" parent="1" source="r9834hisQQ9bvXMmOAnk-189" target="r9834hisQQ9bvXMmOAnk-163">
          <mxGeometry width="50" height="50" relative="1" as="geometry">
            <mxPoint x="449" y="543" as="sourcePoint" />
            <mxPoint x="270" y="408" as="targetPoint" />
            <Array as="points">
              <mxPoint x="380" y="610" />
              <mxPoint x="380" y="398" />
            </Array>
          </mxGeometry>
        </mxCell>
        <mxCell id="r9834hisQQ9bvXMmOAnk-228" value="" style="endArrow=classic;startArrow=classic;html=1;rounded=0;exitX=0;exitY=0.25;exitDx=0;exitDy=0;entryX=1;entryY=0.75;entryDx=0;entryDy=0;" edge="1" parent="1" source="r9834hisQQ9bvXMmOAnk-190" target="r9834hisQQ9bvXMmOAnk-163">
          <mxGeometry width="50" height="50" relative="1" as="geometry">
            <mxPoint x="459" y="553" as="sourcePoint" />
            <mxPoint x="280" y="418" as="targetPoint" />
            <Array as="points">
              <mxPoint x="390" y="693" />
              <mxPoint x="390" y="398" />
            </Array>
          </mxGeometry>
        </mxCell>
        <mxCell id="r9834hisQQ9bvXMmOAnk-229" value="" style="endArrow=classic;startArrow=classic;html=1;rounded=0;exitX=1;exitY=0.25;exitDx=0;exitDy=0;entryX=1;entryY=0.75;entryDx=0;entryDy=0;" edge="1" parent="1" source="r9834hisQQ9bvXMmOAnk-183" target="r9834hisQQ9bvXMmOAnk-163">
          <mxGeometry width="50" height="50" relative="1" as="geometry">
            <mxPoint x="469" y="563" as="sourcePoint" />
            <mxPoint x="290" y="428" as="targetPoint" />
            <Array as="points">
              <mxPoint x="340" y="564" />
              <mxPoint x="340" y="400" />
            </Array>
          </mxGeometry>
        </mxCell>
      </root>
    </mxGraphModel>
  </diagram>
</mxfile>
